<?xml version="1.0" encoding="UTF-8" standalone="no"?>
<svg
   xmlns:dc="http://purl.org/dc/elements/1.1/"
   xmlns:cc="http://creativecommons.org/ns#"
   xmlns:rdf="http://www.w3.org/1999/02/22-rdf-syntax-ns#"
   xmlns:svg="http://www.w3.org/2000/svg"
   xmlns="http://www.w3.org/2000/svg"
   xmlns:sodipodi="http://sodipodi.sourceforge.net/DTD/sodipodi-0.dtd"
   xmlns:inkscape="http://www.inkscape.org/namespaces/inkscape"
   width="2400"
   height="2304"
   id="svg2"
   version="1.1"
   inkscape:version="0.91 r13725"
   sodipodi:docname="blue_flag.svg">
  <metadata
     id="metadata12">
    <rdf:RDF>
      <cc:Work
         rdf:about="">
        <dc:format>image/svg+xml</dc:format>
        <dc:type
           rdf:resource="http://purl.org/dc/dcmitype/StillImage" />
        <dc:title />
      </cc:Work>
    </rdf:RDF>
  </metadata>
  <defs
     id="defs10" />
  <sodipodi:namedview
     pagecolor="#ffffff"
     bordercolor="#666666"
     borderopacity="1"
     objecttolerance="10"
     gridtolerance="10"
     guidetolerance="10"
     inkscape:pageopacity="0"
     inkscape:pageshadow="2"
     inkscape:window-width="1080"
     inkscape:window-height="1855"
     id="namedview8"
     showgrid="false"
     inkscape:zoom="0.14485868"
     inkscape:cx="111.58421"
     inkscape:cy="1849.0513"
     inkscape:window-x="0"
     inkscape:window-y="0"
     inkscape:window-maximized="1"
     inkscape:current-layer="imagebot_1" />
  <!-- Created with ImageBot - http://www.imagebot.com/ -->
  <g
     id="imagebot_1">
    <title
       id="title5">Layer 1</title>
    <path
       style="fill:#0055d4"
       d="M 335.79393,1345.9001 C 151.36256,818.95133 0.27390402,386.81633 0.04135202,385.59983 c -0.390157,-2.041 3.69719018,-4.043 52.90552898,-25.9131 29.330592,-13.0357 53.815179,-23.7006 54.410209,-23.7 0.96168,0 743.15309,1889.51887 744.15846,1894.52557 0.36619,1.8236 -8.43849,5.5616 -88.91938,37.75 -49.12919,19.6493 -89.80881,35.726 -90.39914,35.726 -0.59033,0 -151.97172,-431.1397 -336.4031,-958.0882 z M 479.2846,1092.3688 C 257.74336,529.28103 191.66823,360.37353 192.44363,359.11863 c 1.43933,-2.3295 28.93949,-25.9729 48.33159,-41.5534 195.81575,-157.3272 441.93467,-249.479912 718.5,-269.023312 45.23868,-3.1968 72.80598,-3.8321 134.99978,-3.1113 33.55,0.3889 65.7142,1.0109 71.4761,1.3822 l 10.476,0.6752 237.4405,534.250112 c 130.5923,293.8376 237.5874,534.10357 237.7668,533.92407 0.1795,-0.1795 -52.5812,-196.04227 -117.2459,-435.25037 -64.6648,-239.2081 -117.8045,-436.2881 -118.0883,-437.9555 l -0.516,-3.0317 17.3454,-3.7868 c 23.4212,-5.1133 81.8996,-19.4938 104.6962,-25.746 165.4811,-45.3845 283.651,-104.2727 384.9332,-191.825512 7.5438,-6.5212 15.0377,-13.2566024 16.6531,-14.9675024 1.6154,-1.7109 3.4529,-3.11079982 4.0834,-3.11079982 1.0301,0 455.1917,1145.42598422 456.2503,1150.69368422 0.5225,2.6003 -3.1355,9.3046 -13.8076,25.3066 -102.2638,153.3369 -401.9154,336.4283 -654.4632,399.8864 -93.5851,23.5153 -179.3483,30.178 -245,19.0333 -61.1827,-10.386 -108.5139,-35.5095 -139.8339,-74.224 -11.5414,-14.2663 -26.6661,-39.457 -26.6661,-44.4134 0,-2.6349 23.5806,-25.5849 43.0722,-41.9203 64.7325,-54.2507 147.9934,-100.2232 201.4431,-111.2268 21.6123,-4.4493 37.2773,-3.8343 49.173,1.9304 11.3433,5.4972 16.4014,14.4909 17.0993,30.404 1.349,30.7594 -16.3489,73.3974 -58.8851,141.8667 l -6.9354,11.1637 5.7665,-6.1213 c 63.0542,-66.9349 102.4232,-119.2542 126.3248,-167.8787 18.9414,-38.5338 23.5295,-66.1308 14.1758,-85.2657 -2.888,-5.9079 -10.8774,-13.9941 -16.8076,-17.0112 -11.6097,-5.9067 -28.7304,-8.3664 -49.1951,-7.0676 -86.998,5.5211 -257.5107,85.8797 -435.7315,205.3499 -179.4036,120.2631 -335.74372,258.38 -430.41499,380.2446 -5.66134,7.2875 -10.61591,13.25 -11.01015,13.25 -0.39424,0 -130.24861,-329.2288 -288.56526,-731.6195 z"
       id="path4140"
       inkscape:connector-curvature="0" />
  </g>
</svg>
